<svg width="32" height="32" viewBox="0 0 32 32" fill="none" xmlns="http://www.w3.org/2000/svg">
<g clip-path="url(#clip0_3194_5580)">
<path d="M5.28 32H26.72C29.6 32 32 29.568 32 26.656V14.976C32 13.504 31.36 12.064 30.24 11.072L19.52 1.344C17.44 -0.448 14.56 -0.448 12.48 1.344L1.76 11.072C0.639999 12.032 0 13.504 0 14.976V26.656C0.16 29.728 2.4 32 5.28 32ZM16 3.296C16.48 3.296 16.96 3.456 17.44 3.776L28.16 13.504C28.64 13.824 28.8 14.464 28.8 15.136V26.816C28.8 27.936 27.84 28.928 26.72 28.928H5.44C4.32 28.928 3.36 27.968 3.36 26.816V15.136C3.36 14.496 3.68 14.016 4 13.504L14.72 3.776C15.04 3.456 15.52 3.296 16 3.296Z" fill="black"/>
<path d="M11 14.918C11 14.411 11.411 14 11.918 14H13V27C13 27.5523 12.5523 28 12 28C11.4477 28 11 27.5523 11 27V14.918Z" fill="#A9ABAD"/>
<path d="M19 14H20.082C20.589 14 21 14.411 21 14.918V27C21 27.5523 20.5523 28 20 28C19.4477 28 19 27.5523 19 27V14Z" fill="#A9ABAD"/>
<path d="M11 15C11 13.8371 11.8208 12.8358 12.9612 12.6078L15.496 12.1008C15.8287 12.0343 16.1713 12.0343 16.504 12.1008L19.0388 12.6078C20.1792 12.8358 21 13.8371 21 15C17.6994 14.3399 14.3006 14.3399 11 15Z" fill="#A9ABAD"/>
</g>
<defs>
<clipPath id="clip0_3194_5580">
<rect width="32" height="32" fill="white" transform="matrix(-1 0 0 1 32 0)"/>
</clipPath>
</defs>
</svg>
