<svg id="Group_3356" data-name="Group 3356" xmlns="http://www.w3.org/2000/svg" width="42.072" height="42.398" viewBox="0 0 42.072 42.398">
  <g id="_2phdpwUjQFSADPhbAK4uocEJqxA" data-name="2phdpwUjQFSADPhbAK4uocEJqxA" transform="translate(0 0)">
    <path id="Path_3509" data-name="Path 3509" d="M-172.018,0h1.631l2.283.217,2.174.544,2.392.87,2.283,1.2,1.957,1.3,1.2.978,1.3,1.2,1.2,1.3,1.087,1.522.87,1.413.761,1.3.87,2.283.544,1.739.326,1.739.217,2.609V22.83l-.217,1.957L-151.8,27.5l-1.2,3.044-1.087,1.957-1.087,1.522-1.087,1.413-.544.544h-.217l-.109.326-.87.761-.326.109-.109.326-1.631,1.2-.978.652-1.2.652-1.3.652-.544.217h-.326v.217l-2.392.652-.544.217-.978.109-1.739.217-2.174.109-2.827-.326-2.5-.652-1.522-.544-1.631-.761-2.066-1.087-1.087-.761-1.3-.978-1.3-1.2-1.087-1.087v-.217h-.217l-1.522-2.066-1.2-2.066-.87-1.739-.544-1.3-.544-1.848-.435-2.392L-193,22.4V19.351l.326-2.609.652-2.392.978-2.392,1.087-2.066,1.2-1.631,1.413-1.631.435-.435h.217V5.979L-185.5,5l1.413-1.087L-181.8,2.5l2.066-.978,2.283-.761,2.392-.544.761-.109Z" transform="translate(193)" fill="#d2273e"/>
    <path id="Path_3513" data-name="Path 3513" d="M-71.3,0l1.631.109,1.848.435,1.848.87,1.087.87.544.544.978,1.087.87,1.631.544,1.739V7.61h-4.457l-.326-.435-.109-.652-.109-3.261-.217-.544h-.652l-1.3.761L-76.3,8.262l-.326.544.217.652L-75,10.545l1.739,1.087.978.652V12.5h.435v.217l.544.217,2.283,1.522,1.2.652h.544l.326-.326.109-.978V11.524l.109-.978.217-.217.544-.109h4.022v.761l-.435,1.3-.87,1.739-.87,1.2-1.3,1.2-1.413.87-1.413.544-1.3.326h-2.609l-1.739-.435-1.739-.87-1.2-.87L-77.826,15l-.761-1.087-.761-1.522-.544-1.957L-80,9.676V8.588l.326-1.739.435-1.3.652-1.3,1.2-1.522,1.3-1.087,1.631-.87,1.2-.435Z" transform="translate(91.85 12.067)" fill="#fcfcfc"/>
    <path id="Path_3516" data-name="Path 3516" d="M-73.085,0h.652l.326.652L-72,3.914l.217.761.109.217h4.566L-59.17,5l.652.217.217.326v.761l-.435.435-.761.217h-5.11l-.652.109-1.2-.109h-2.718l-1.739.109-.435.109-.109.217L-72,7.61v4.022l-.217.652-.326.326L-73.3,12.5l-1.522-.87-2.283-1.522V9.893h-.435l-.435-.435-1.957-1.2-1.739-1.3L-82,6.414l.217-.652L-80.8,5l4.783-3.153L-74.39.761Z" transform="translate(97.111 14.676)" fill="#fd876f"/>
    <path id="Path_3519" data-name="Path 3519" d="M-8.913,0l.761.652,1.413.978,2.174,1.413v.217h.435v.217l.544.217L-1.3,5.218l1.2.652H.437l.326-.326.109-.978V2.283L.98,1.3,1.2,1.087,1.741.978H5.764v.761l-.435,1.3-.87,1.739-.87,1.2-1.3,1.2-1.413.87-1.413.544-.761.217L-1.846,8.7l.217-.109V8.371l-.435.109h-.978l-1.2-.217-.544-.326-.435-.217L-5.434,7.5l-.544-.217-.217-.544h-.326V6.523l-.435-.217-.761-.761-.217-.109V5.218h-.217L-8.8,4.457l-.326-.326-.544-.87L-10,2.283v-.87l.109-.761.326-.109V.326Z" transform="translate(24.133 21.308)" fill="#d4d9d9"/>
    <path id="Path_3524" data-name="Path 3524" d="M-18.717,0h4.022V.761l-.435,1.3L-16,3.805l-.87,1.2-1.3,1.2-1.413.87-.761.326h-.544L-21,7.066l.87-.435h.326V6.414l.435-.435h.217l-.109-.435-.435-.109-.326.109-.435-.435.544-.326.217-.217.109-.978V1.3l.109-.978.217-.217Z" transform="translate(44.591 22.287)" fill="#d4d9d9"/>
    <path id="Path_3526" data-name="Path 3526" d="M-8.022,0h.978V1.087l.326.326v.326l-.652.217v.217l-.217.109-.109,1.2.109.544L-7.261,5l.435.761v.217l.326.109.544.544v.217h.217v.217l.435.217.761.761.217.109v.217H-4l.217.544.652.109.326.326.761.435,1.2.217H.567l-.217.544H-2.26L-4,10.11l-.217-.217L-4,9.784l-.217-.217h-.326l-.109-.326h-.217V9.023h-.217V8.806l-.544-.217-.326-.326V8.045l-.326-.109L-7.8,6.2l-.761-1.3-.217-.544L-9,2.174l.109-.544.544-1.3Z" transform="translate(21.937 19.677)" fill="#eee9e9"/>
    <path id="Path_3529" data-name="Path 3529" d="M-.891,0l.435.217L.087.761l1.2.652L2.914,2.5,6.936,5.218l.652.435,1.087-.109.217-.109v.87l-.435.435L7.7,6.632l-1.522-.87L3.892,4.24V4.022H3.457l-.435-.435-1.957-1.2-1.739-1.3L-1,.544Z" transform="translate(16.111 20.547)" fill="#f75b66"/>
    <path id="Path_3536" data-name="Path 3536" d="M-44.564,0l.109.326-.87,1.522-1.2,1.3-1.3.978-1.522.761h-.544L-50,4.566l.87-.435h.326V3.914l.435-.435h.217l-.109-.435-.435-.109-.326.109-.435-.435.544-.326.544-.544.544.544.544.109.544-.217.544-.544.978-.761H-45V.652h.217Z" transform="translate(73.591 24.787)" fill="#ede9e9"/>
    <path id="Path_3538" data-name="Path 3538" d="M-3.565,0l.978.217L-.3,1.2v.217l.652.217v.217l.435.109.652.544.109.326L2.632,3.914l.326.652.326.978.217.761L3.066,6.2,2.2,4.457l-.761-.978L1,3.044V2.827L.566,2.609l-1.2-.87L-2.587.87-3.565.652V.435L-4,.326Z" transform="translate(26.287 11.741)" fill="#f83f47"/>
    <path id="Path_3551" data-name="Path 3551" d="M-45.456,0h.544V.217L-46.543.87l-1.2.652-1.413,1.2-1.2,1.631L-50.674,5h-.217L-51,4.675l.652-1.3.435-.652,1.087-1.087.652-.435.652-.544.652-.217.435-.217V.435Z" transform="translate(63.502 12.285)" fill="#f63b44"/>
    <path id="Path_3561" data-name="Path 3561" d="M-2.674,0l.435.217L-1.7.978l.326.217.326.652.326.978.217.761-.435-.109L-1.8,1.739-2.565.761-3,.326V.109Z" transform="translate(30.287 14.459)" fill="#f24149"/>
    <path id="Path_3565" data-name="Path 3565" d="M-18.717,0h2.283V.109l-.652.109.109.326h-3.044l-.435-.109H-21l.109-.217.435-.109Z" transform="translate(46.657 21.526)" fill="#f94c57"/>
    <path id="Path_3566" data-name="Path 3566" d="M0,0,.435.435V.652H.652l.761.87L2.5,2.5l.761.326.109.217.87.435.109.217-.435-.109-.87-.326V3.044L2.5,2.935l-.978-.652V2.066l-.435-.109-.652-.87L0,.217Z" transform="translate(13.154 26.2)" fill="#f9333d"/>
    <path id="Path_3569" data-name="Path 3569" d="M-1.783,0l.544.217V.435l.652.217V.87l.435.109L.5,1.522l-.217.435-.544-.217L-1.348.87-2,.544Z" transform="translate(27.222 12.72)" fill="#f8525c"/>
    <path id="Path_3578" data-name="Path 3578" d="M-14.261,0l.109.326-1.087,1.2-.544.435L-16,1.848l.326-.326.109-.326h.326l.109-.435h.326l.217-.435h.217Z" transform="translate(42.309 26.418)" fill="#f5f6f6"/>
    <path id="Path_3579" data-name="Path 3579" d="M-35.651,0l.217.435V.761h-4.457L-40,.544h4.349Z" transform="translate(65.331 18.916)" fill="#eae7e7"/>
    <path id="Path_3584" data-name="Path 3584" d="M-1.783,0h.435l.435.435L-1.13.87-1.674.652-2,.217h.217Z" transform="translate(28.635 13.807)" fill="#fa5a64"/>
    <path id="Path_3585" data-name="Path 3585" d="M-11.587,0h.109V.87l-.435.435-.761-.109L-13,.87h1.087L-11.7.652Z" transform="translate(36.482 25.983)" fill="#dd545d"/>
    <path id="Path_3587" data-name="Path 3587" d="M-8.913,0h.544V.217L-9.783.761H-10l.217-.435Z" transform="translate(26.96 12.285)" fill="#f3474c"/>
  </g>
</svg>
