<svg xmlns="http://www.w3.org/2000/svg" width="36.513" height="21.299" viewBox="0 0 36.513 21.299">
  <g id="Icon_ionic-ios-menu" data-name="Icon ionic-ios-menu" transform="translate(-4.5 -10.125)">
    <path id="Path_816" data-name="Path 816" d="M39.492,13.168H6.021A1.526,1.526,0,0,1,4.5,11.646h0a1.526,1.526,0,0,1,1.521-1.521h33.47a1.526,1.526,0,0,1,1.521,1.521h0A1.526,1.526,0,0,1,39.492,13.168Z"/>
    <path id="Path_817" data-name="Path 817" d="M39.492,19.918H6.021A1.526,1.526,0,0,1,4.5,18.4h0a1.526,1.526,0,0,1,1.521-1.521h33.47A1.526,1.526,0,0,1,41.013,18.4h0A1.526,1.526,0,0,1,39.492,19.918Z" transform="translate(0 2.378)" fill="#a9abad"/>
    <path id="Path_818" data-name="Path 818" d="M39.492,26.668H6.021A1.526,1.526,0,0,1,4.5,25.146h0a1.526,1.526,0,0,1,1.521-1.521h33.47a1.526,1.526,0,0,1,1.521,1.521h0A1.526,1.526,0,0,1,39.492,26.668Z" transform="translate(0 4.757)"/>
  </g>
</svg>
