<svg id="document-svgrepo-com" xmlns="http://www.w3.org/2000/svg" width="18" height="20" viewBox="0 0 18 20">
  <path id="Path_1304" data-name="Path 1304" d="M3,10C3,6.229,3,4.343,4.172,3.172S7.229,2,11,2h2c3.771,0,5.657,0,6.828,1.172S21,6.229,21,10v4c0,3.771,0,5.657-1.172,6.828S16.771,22,13,22H11c-3.771,0-5.657,0-6.828-1.172S3,17.771,3,14Z" transform="translate(-3 -2)"/>
  <path id="Path_1305" data-name="Path 1305" d="M7.25,10A.75.75,0,0,1,8,9.25h8a.75.75,0,0,1,0,1.5H8A.75.75,0,0,1,7.25,10Z" transform="translate(-3 -2)" fill="#e8e8e8" fill-rule="evenodd"/>
  <path id="Path_1306" data-name="Path 1306" d="M7.25,14A.75.75,0,0,1,8,13.25h5a.75.75,0,0,1,0,1.5H8A.75.75,0,0,1,7.25,14Z" transform="translate(-3 -2)" fill="#e8e8e8" fill-rule="evenodd"/>
</svg>
