<svg id="Icon_ionic-ios-menu" data-name="Icon ionic-ios-menu" xmlns="http://www.w3.org/2000/svg" width="30.234" height="17.637" viewBox="0 0 30.234 17.637">
  <path id="Path_816" data-name="Path 816" d="M33.474,12.645H5.76a1.263,1.263,0,0,1-1.26-1.26h0a1.263,1.263,0,0,1,1.26-1.26H33.474a1.263,1.263,0,0,1,1.26,1.26h0A1.263,1.263,0,0,1,33.474,12.645Z" transform="translate(-4.5 -10.125)"/>
  <path id="Path_817" data-name="Path 817" d="M33.474,19.395H5.76a1.263,1.263,0,0,1-1.26-1.26h0a1.263,1.263,0,0,1,1.26-1.26H33.474a1.263,1.263,0,0,1,1.26,1.26h0A1.263,1.263,0,0,1,33.474,19.395Z" transform="translate(-4.5 -9.316)"/>
  <path id="Path_818" data-name="Path 818" d="M33.474,26.145H5.76a1.263,1.263,0,0,1-1.26-1.26h0a1.263,1.263,0,0,1,1.26-1.26H33.474a1.263,1.263,0,0,1,1.26,1.26h0A1.263,1.263,0,0,1,33.474,26.145Z" transform="translate(-4.5 -8.508)"/>
</svg>
