<svg xmlns="http://www.w3.org/2000/svg" width="22" height="22" viewBox="0 0 22 22" fill="#ffffff">
  <g id="Icon_ionic-ios-help-circle-outline" data-name="Icon ionic-ios-help-circle-outline" transform="translate(-3.375 -3.375)">
    <path id="Path_1837" data-name="Path 1837" d="M14.375,4.856A9.515,9.515,0,1,1,7.643,7.643a9.456,9.456,0,0,1,6.732-2.787m0-1.481a11,11,0,1,0,11,11,11,11,0,0,0-11-11Z"/>
    <path id="Path_1838" data-name="Path 1838" d="M18.049,11.25c2.637,0,4.451,1.246,4.451,3.037a2.928,2.928,0,0,1-1.976,2.659c-1.223.6-1.638,1.048-1.638,1.815v.473h-2.44l-.021-.515a2.435,2.435,0,0,1,1.659-2.635c1.188-.6,1.688-.988,1.688-1.731s-.844-1.288-1.891-1.288A1.688,1.688,0,0,0,16,14.538H13.5C13.549,12.61,15.223,11.25,18.049,11.25ZM16.2,21.516a1.385,1.385,0,0,1,1.5-1.234,1.384,1.384,0,0,1,1.512,1.234A1.384,1.384,0,0,1,17.7,22.75,1.377,1.377,0,0,1,16.2,21.516Z" transform="translate(-3.625 -2.625)"/>
  </g>
</svg>
